<svg width="32" height="32" viewBox="0 0 32 32" fill="none" xmlns="http://www.w3.org/2000/svg">
  <!-- Taco shell -->
  <path d="M8 16 Q16 8 24 16 Q20 24 16 22 Q12 24 8 16" stroke="#ec9aad" stroke-width="2.5" fill="none"/>
  <path d="M9 16 Q16 10 23 16 Q20 22 16 21 Q12 22 9 16" fill="#ec9aad" opacity="0.1"/>
  
  <!-- Filling layers -->
  <path d="M10 16 Q16 12 22 16" stroke="#ec9aad" stroke-width="2" fill="none"/>
  <path d="M11 18 Q16 14 21 18" stroke="#ec9aad" stroke-width="2" fill="none"/>
  <path d="M12 16 Q16 13 20 16" fill="#ec9aad" opacity="0.15"/>
  
  <!-- Garnish dots with more detail -->
  <circle cx="13" cy="16" r="0.7" fill="#ec9aad" opacity="0.8"/>
  <circle cx="19" cy="17" r="0.7" fill="#ec9aad" opacity="0.8"/>
  <circle cx="16" cy="19" r="0.7" fill="#ec9aad" opacity="0.8"/>
  <circle cx="15" cy="15" r="0.4" fill="#ec9aad" opacity="0.6"/>
  <circle cx="18" cy="15" r="0.4" fill="#ec9aad" opacity="0.6"/>
  
  <!-- Delicious steam/aroma -->
  <path d="M10 12 Q12 10 10 8" stroke="#ec9aad" stroke-width="1.5" opacity="0.5" fill="none"/>
  <path d="M22 12 Q20 10 22 8" stroke="#ec9aad" stroke-width="1.5" opacity="0.5" fill="none"/>
  <path d="M16 10 Q18 8 16 6" stroke="#ec9aad" stroke-width="1.5" opacity="0.3" fill="none"/>
</svg>