<svg width="32" height="32" viewBox="0 0 32 32" fill="none" xmlns="http://www.w3.org/2000/svg">
  <!-- Bicep outline -->
  <path d="M8 20 Q8 16 12 14 Q16 12 20 14 Q24 16 24 20 Q24 24 20 26 Q16 28 12 26 Q8 24 8 20 Z" stroke="#ec9aad" stroke-width="2.5" fill="none"/>
  <path d="M8 20 Q8 16 12 14 Q16 12 20 14 Q24 16 24 20 Q24 24 20 26 Q16 28 12 26 Q8 24 8 20 Z" fill="#ec9aad" opacity="0.15"/>
  
  <!-- Forearm -->
  <ellipse cx="16" cy="24" rx="8" ry="4" stroke="#ec9aad" stroke-width="2.5" fill="none"/>
  <ellipse cx="16" cy="24" rx="6" ry="3" fill="#ec9aad" opacity="0.1"/>
  
  <!-- Muscle definition lines -->
  <path d="M12 18 Q16 16 20 18" stroke="#ec9aad" stroke-width="2" fill="none"/>
  
  <!-- Power/energy lines -->
  <path d="M6 12 L8 10" stroke="#ec9aad" stroke-width="2" stroke-linecap="round" opacity="0.8"/>
  <path d="M4 16 L6 14" stroke="#ec9aad" stroke-width="2" stroke-linecap="round" opacity="0.8"/>
  <path d="M26 10 L28 8" stroke="#ec9aad" stroke-width="2" stroke-linecap="round" opacity="0.8"/>
</svg>