<svg width="32" height="32" viewBox="0 0 32 32" fill="none" xmlns="http://www.w3.org/2000/svg">
  <!-- Tree trunk -->
  <path d="M16 30 Q16 26 16 22 Q16 18 16 14 Q16 10 16 6" stroke="#ec9aad" stroke-width="2.5" stroke-linecap="round"/>
  
  <!-- Trunk texture -->
  <path d="M14 14 Q16 14 18 14" stroke="#ec9aad" stroke-width="1.5" opacity="0.4"/>
  <path d="M14.5 18 Q16 18 17.5 18" stroke="#ec9aad" stroke-width="1.5" opacity="0.4"/>
  <path d="M15 22 Q16 22 17 22" stroke="#ec9aad" stroke-width="1.5" opacity="0.4"/>
  
  <!-- Palm fronds with tropical feel -->
  <path d="M16 8 Q12 6 8 8" stroke="#ec9aad" stroke-width="2.5" stroke-linecap="round"/>
  <path d="M16 8 Q20 6 24 8" stroke="#ec9aad" stroke-width="2.5" stroke-linecap="round"/>
  <path d="M16 8 Q14 4 12 2" stroke="#ec9aad" stroke-width="2.5" stroke-linecap="round"/>
  <path d="M16 8 Q18 4 20 2" stroke="#ec9aad" stroke-width="2.5" stroke-linecap="round"/>
  <path d="M16 8 Q16 4 16 2" stroke="#ec9aad" stroke-width="2.5" stroke-linecap="round"/>
  
  <!-- Coconuts -->
  <circle cx="14" cy="10" r="1" fill="#ec9aad" opacity="0.6"/>
  <circle cx="18" cy="11" r="1" fill="#ec9aad" opacity="0.6"/>
  
  <!-- Tropical vibes -->
  <ellipse cx="16" cy="28" rx="6" ry="1.5" fill="#ec9aad" opacity="0.2"/>
  
  <!-- Breeze effect -->
  <path d="M6 12 Q8 10 6 8" stroke="#ec9aad" stroke-width="1" opacity="0.4" fill="none"/>
  <path d="M26 14 Q24 12 26 10" stroke="#ec9aad" stroke-width="1" opacity="0.4" fill="none"/>
</svg>