<svg width="32" height="32" viewBox="0 0 32 32" fill="none" xmlns="http://www.w3.org/2000/svg">
  <!-- Sun -->
  <circle cx="16" cy="12" r="6" stroke="#ec9aad" stroke-width="2.5" fill="none"/>
  <circle cx="16" cy="12" r="4" fill="#ec9aad" opacity="0.2"/>
  
  <!-- Sun rays -->
  <path d="M16 2 L16 4" stroke="#ec9aad" stroke-width="2.5" stroke-linecap="round"/>
  <path d="M24 6 L22.5 7.5" stroke="#ec9aad" stroke-width="2.5" stroke-linecap="round"/>
  <path d="M28 12 L26 12" stroke="#ec9aad" stroke-width="2.5" stroke-linecap="round"/>
  <path d="M24 18 L22.5 16.5" stroke="#ec9aad" stroke-width="2.5" stroke-linecap="round"/>
  <path d="M8 6 L9.5 7.5" stroke="#ec9aad" stroke-width="2.5" stroke-linecap="round"/>
  <path d="M4 12 L6 12" stroke="#ec9aad" stroke-width="2.5" stroke-linecap="round"/>
  <path d="M8 18 L9.5 16.5" stroke="#ec9aad" stroke-width="2.5" stroke-linecap="round"/>
  
  <!-- Extended rays for warmth -->
  <path d="M20 4 L21 5" stroke="#ec9aad" stroke-width="1.5" stroke-linecap="round" opacity="0.6"/>
  <path d="M12 4 L11 5" stroke="#ec9aad" stroke-width="1.5" stroke-linecap="round" opacity="0.6"/>
  
  <!-- Horizon -->
  <path d="M2 22 L30 22" stroke="#ec9aad" stroke-width="2.5" stroke-linecap="round"/>
  
  <!-- Mountains -->
  <path d="M6 22 L10 14 L14 18 L18 10 L22 16 L26 22" stroke="#ec9aad" stroke-width="2.5" stroke-linejoin="round" fill="none"/>
</svg>