<svg width="32" height="32" viewBox="0 0 32 32" fill="none" xmlns="http://www.w3.org/2000/svg">
  <!-- Beach umbrella -->
  <path d="M16 8 Q12 10 8 8 Q12 12 16 8 Q20 12 24 8 Q20 10 16 8" stroke="#1ACAD4" stroke-width="2.5" fill="none"/>
  
  <!-- Umbrella fill -->
  <path d="M16 8 Q12 10 8 8 Q12 12 16 8 Q20 12 24 8 Q20 10 16 8" fill="#1ACAD4" opacity="0.2"/>
  
  <!-- Umbrella pole -->
  <path d="M16 8 L16 20" stroke="#1ACAD4" stroke-width="2.5"/>
  
  <!-- Beach ball -->
  <circle cx="24" cy="22" r="3" stroke="#1ACAD4" stroke-width="2.5" fill="none"/>
  <path d="M21 22 L27 22" stroke="#1ACAD4" stroke-width="1.5"/>
  <path d="M24 19 L24 25" stroke="#1ACAD4" stroke-width="1.5"/>
  
  <!-- Sand line -->
  <path d="M4 26 Q16 24 28 26" stroke="#1ACAD4" stroke-width="2.5" stroke-linecap="round"/>
  
  <!-- Water reflection -->
  <path d="M6 28 Q12 27 18 28" stroke="#1ACAD4" stroke-width="1.5" opacity="0.5" stroke-linecap="round"/>
</svg>