<svg width="32" height="32" viewBox="0 0 32 32" fill="none" xmlns="http://www.w3.org/2000/svg">
  <!-- Premium star outline -->
  <path d="M16 2 L18.4 8.8 L25.6 6.4 L21.6 12.8 L28.8 14.4 L22.4 18.4 L26.4 24.8 L19.2 21.6 L18.4 28.8 L16 22 L13.6 28.8 L12.8 21.6 L5.6 24.8 L9.6 18.4 L3.2 14.4 L10.4 12.8 L6.4 6.4 L13.6 8.8 Z" stroke="#1ACAD4" stroke-width="2.5" fill="none"/>
  <path d="M16 6 L17.6 10.4 L22.4 9.6 L19.6 13.6 L24 15.2 L19.2 17.2 L21.6 21.6 L17.2 19.2 L16.8 23.6 L16 19 L15.2 23.6 L14.8 19.2 L10.4 21.6 L12.8 17.2 L8 15.2 L12.4 13.6 L9.6 9.6 L14.4 10.4 Z" fill="#1ACAD4" opacity="0.2"/>
  
  <!-- Center glow -->
  <circle cx="16" cy="16" r="3" fill="#1ACAD4" opacity="0.3"/>
  
  <!-- Premium sparkles -->
  <circle cx="8" cy="8" r="1" fill="#1ACAD4" opacity="0.8"/>
  <circle cx="24" cy="8" r="1" fill="#1ACAD4" opacity="0.8"/>
  <circle cx="8" cy="24" r="1" fill="#1ACAD4" opacity="0.6"/>
  <circle cx="24" cy="24" r="1" fill="#1ACAD4" opacity="0.6"/>
</svg>