<svg width="32" height="32" viewBox="0 0 32 32" fill="none" xmlns="http://www.w3.org/2000/svg">
  <!-- Rocket body -->
  <ellipse cx="16" cy="12" rx="4" ry="8" stroke="#1ACAD4" stroke-width="2.5" fill="none"/>
  <ellipse cx="16" cy="12" rx="3" ry="6" fill="#1ACAD4" opacity="0.1"/>
  
  <!-- Rocket nose -->
  <path d="M12 4 Q16 2 20 4 L18 8 L14 8 Z" stroke="#1ACAD4" stroke-width="2.5" fill="none"/>
  <path d="M13 5 Q16 3 19 5 L17.5 7.5 L14.5 7.5 Z" fill="#1ACAD4" opacity="0.2"/>
  
  <!-- Rocket fins -->
  <path d="M12 16 L8 20 L10 22 L14 18" stroke="#1ACAD4" stroke-width="2.5" fill="none"/>
  <path d="M20 16 L24 20 L22 22 L18 18" stroke="#1ACAD4" stroke-width="2.5" fill="none"/>
  
  <!-- Window -->
  <circle cx="16" cy="10" r="2" stroke="#1ACAD4" stroke-width="2.5" fill="none"/>
  <circle cx="16" cy="10" r="1.3" fill="#1ACAD4" opacity="0.3"/>
  
  <!-- Flame with blue energy -->
  <path d="M14 20 Q16 26 18 20" stroke="#1ACAD4" stroke-width="2.5" fill="none"/>
  <path d="M15 21 Q16 24 17 21" fill="#1ACAD4" opacity="0.4"/>
  
  <!-- Speed trail -->
  <path d="M6 10 L8 10" stroke="#1ACAD4" stroke-width="2" opacity="0.6" stroke-linecap="round"/>
  <path d="M4 14 L6 14" stroke="#1ACAD4" stroke-width="2" opacity="0.4" stroke-linecap="round"/>
</svg>